<svg width="700" height="330" viewBox="0 0 700 330" fill="none" xmlns="http://www.w3.org/2000/svg">
<path d="M700 308.399C550.818 353.967 438.932 327.439 364.341 228.815C289.75 130.191 215.159 66.475 140.568 37.6678C85.6885 16.4733 50.9976 4.2626 36.4949 1.03574H28.6812C28.6812 -0.123322 31.2858 -0.123322 36.4949 1.03574H700V308.399Z" fill="white" fill-opacity="0.4"/>
<path d="M700 290.474C550.818 336.042 434.198 335.038 337.659 228.815C263 146.667 186.478 66.4753 111.887 37.668C57.0074 16.4735 22.3165 4.26285 7.81378 1.03598H0C0 -0.123077 2.60455 -0.123077 7.81378 1.03598H700V290.474Z" fill="white" fill-opacity="0.4"/>
</svg>
