<svg width="700" height="330" viewBox="0 0 700 330" fill="none" xmlns="http://www.w3.org/2000/svg">
<path d="M0 21.6009C149.182 -23.9672 261.068 2.5608 335.659 101.185C410.25 199.809 484.841 263.525 559.432 292.332C614.311 313.527 649.002 325.737 663.505 328.964H671.319C671.319 330.123 668.714 330.123 663.505 328.964H0V21.6009Z" fill="white" fill-opacity="0.4"/>
<path d="M0 39.5264C149.182 -6.04175 265.802 -5.03756 362.341 101.185C437 183.333 513.522 263.525 588.113 292.332C642.993 313.526 677.683 325.737 692.186 328.964H700C700 330.123 697.395 330.123 692.186 328.964H0V39.5264Z" fill="white" fill-opacity="0.4"/>
</svg>
