<svg width="166" height="45" viewBox="0 0 166 45" fill="none" xmlns="http://www.w3.org/2000/svg">
<g id="Group 23337">
<g id="RoqueBook">
<path id="Vector" d="M153.547 34.8018C151.638 34.8018 149.912 34.4837 148.366 33.8474C146.821 33.1809 145.503 32.2871 144.413 31.1661C143.322 30.0148 142.474 28.7121 141.868 27.2578C141.292 25.7732 141.004 24.2129 141.004 22.5769C141.004 20.3046 141.504 18.2292 142.504 16.3508C143.534 14.4724 144.988 12.9727 146.867 11.8517C148.775 10.7004 151.017 10.1248 153.593 10.1248C156.198 10.1248 158.425 10.7004 160.273 11.8517C162.121 12.9727 163.53 14.4724 164.5 16.3508C165.499 18.1989 165.999 20.1986 165.999 22.3497C165.999 22.7132 165.984 23.0919 165.954 23.4858C165.924 23.8494 165.893 24.1523 165.863 24.3947H147.457C147.579 25.6066 147.927 26.667 148.503 27.5759C149.109 28.4848 149.866 29.1817 150.775 29.6664C151.714 30.1209 152.714 30.3481 153.774 30.3481C154.986 30.3481 156.122 30.0603 157.183 29.4846C158.274 28.8787 159.016 28.091 159.41 27.1215L164.636 28.5757C164.06 29.7876 163.227 30.8632 162.136 31.8024C161.076 32.7416 159.819 33.4839 158.364 34.0292C156.91 34.5443 155.304 34.8018 153.547 34.8018ZM147.321 20.5318H159.773C159.652 19.3199 159.304 18.2747 158.728 17.3961C158.183 16.4872 157.455 15.7903 156.547 15.3056C155.638 14.7905 154.623 14.533 153.502 14.533C152.411 14.533 151.411 14.7905 150.502 15.3056C149.624 15.7903 148.897 16.4872 148.321 17.3961C147.776 18.2747 147.442 19.3199 147.321 20.5318Z" fill="#161616"/>
<path id="Vector_2" d="M114.184 25.4399V10.5337H120.274V24.122C120.274 25.9398 120.607 27.3183 121.273 28.2575C121.94 29.1664 122.925 29.6209 124.227 29.6209C125.015 29.6209 125.788 29.4694 126.545 29.1664C127.333 28.8332 128.045 28.3484 128.681 27.7122C129.348 27.0759 129.908 26.2731 130.363 25.3036V10.5337H136.452V27.5304C136.452 28.1666 136.558 28.6211 136.77 28.8938C137.013 29.1664 137.391 29.3331 137.907 29.3937V34.3473C137.301 34.4381 136.786 34.4987 136.361 34.529C135.967 34.5896 135.604 34.6199 135.271 34.6199C134.18 34.6199 133.286 34.3776 132.589 33.8928C131.923 33.3777 131.529 32.6809 131.408 31.8023L131.271 29.8936C130.211 31.4993 128.848 32.7264 127.181 33.5747C125.515 34.3927 123.682 34.8017 121.682 34.8017C119.228 34.8017 117.365 34.014 116.093 32.4385C114.82 30.8328 114.184 28.4999 114.184 25.4399Z" fill="#161616"/>
<path id="Vector_3" d="M94.6063 34.8018C93.0914 34.8018 91.6978 34.4837 90.4253 33.8474C89.1528 33.1809 88.047 32.2871 87.1077 31.1661C86.1685 30.0451 85.4414 28.7272 84.9264 27.2124C84.4416 25.6975 84.1992 24.0917 84.1992 22.3951C84.1992 20.6682 84.4719 19.0624 85.0172 17.5779C85.5929 16.0933 86.3806 14.7905 87.3804 13.6695C88.3802 12.5485 89.5618 11.6851 90.9252 11.0791C92.2886 10.4429 93.758 10.1248 95.3334 10.1248C97.1513 10.1248 98.757 10.5489 100.151 11.3972C101.544 12.2153 102.68 13.306 103.559 14.6693V10.5338H108.876V44.0273H102.787V30.1663C100.969 33.2566 98.242 34.8018 94.6063 34.8018ZM96.8786 29.621C97.7572 29.621 98.5449 29.4543 99.2418 29.1211C99.9689 28.7878 100.62 28.3333 101.196 27.7577C101.802 27.1518 102.332 26.4701 102.787 25.7126V20.0774C102.635 19.4108 102.347 18.7897 101.923 18.2141C101.529 17.6385 101.044 17.1385 100.469 16.7144C99.9234 16.2599 99.3326 15.9115 98.6964 15.6691C98.0602 15.4268 97.4239 15.3056 96.7877 15.3056C95.8485 15.3056 94.985 15.5025 94.1973 15.8964C93.4399 16.2902 92.7733 16.8356 92.1977 17.5324C91.622 18.1989 91.1827 18.9715 90.8797 19.8501C90.5768 20.6985 90.4253 21.6074 90.4253 22.5769C90.4253 23.8797 90.698 25.0613 91.2433 26.1217C91.7887 27.1821 92.5461 28.0304 93.5156 28.6666C94.4851 29.3029 95.6061 29.621 96.8786 29.621Z" fill="#161616"/>
<path id="Vector_4" d="M69.0454 34.8018C67.1064 34.8018 65.3643 34.4837 63.8192 33.8474C62.274 33.1809 60.9561 32.272 59.8654 31.1207C58.805 29.9694 57.987 28.6515 57.4113 27.1669C56.8357 25.6823 56.5479 24.122 56.5479 22.486C56.5479 20.8197 56.8357 19.2442 57.4113 17.7596C57.987 16.2751 58.805 14.9572 59.8654 13.8059C60.9561 12.6546 62.274 11.7608 63.8192 11.1246C65.3643 10.458 67.1064 10.1248 69.0454 10.1248C70.9844 10.1248 72.7114 10.458 74.2262 11.1246C75.7714 11.7608 77.0893 12.6546 78.18 13.8059C79.2707 14.9572 80.0887 16.2751 80.6341 17.7596C81.2097 19.2442 81.4976 20.8197 81.4976 22.486C81.4976 24.122 81.2097 25.6823 80.6341 27.1669C80.0887 28.6515 79.2707 29.9694 78.18 31.1207C77.1196 32.272 75.8168 33.1809 74.2717 33.8474C72.7265 34.4837 70.9844 34.8018 69.0454 34.8018ZM62.8194 22.486C62.8194 23.8797 63.092 25.1218 63.6374 26.2125C64.1827 27.2729 64.925 28.1061 65.8642 28.7121C66.8034 29.318 67.8638 29.621 69.0454 29.621C70.1967 29.621 71.242 29.318 72.1812 28.7121C73.1204 28.0758 73.8627 27.2275 74.408 26.1671C74.9837 25.0764 75.2715 23.8342 75.2715 22.4406C75.2715 21.0772 74.9837 19.8501 74.408 18.7594C73.8627 17.6687 73.1204 16.8204 72.1812 16.2145C71.242 15.6085 70.1967 15.3056 69.0454 15.3056C67.8638 15.3056 66.8034 15.6237 65.8642 16.2599C64.925 16.8659 64.1827 17.7142 63.6374 18.8049C63.092 19.8653 62.8194 21.0923 62.8194 22.486Z" fill="#161616"/>
<path id="Vector_5" d="M29.2141 34.347V2.08057H43.4841C44.9686 2.08057 46.332 2.38354 47.5742 2.98948C48.8467 3.59542 49.9374 4.41345 50.8463 5.44355C51.7855 6.47365 52.4975 7.62495 52.9822 8.89743C53.4973 10.1699 53.7548 11.4727 53.7548 12.8058C53.7548 14.1691 53.5124 15.4871 53.0277 16.7595C52.5732 18.0017 51.9067 19.0924 51.0281 20.0316C50.1494 20.9708 49.1193 21.698 47.9378 22.213L55.3 34.347H48.3922L41.7571 23.531H35.4856V34.347H29.2141ZM35.4856 18.032H43.3477C44.1355 18.032 44.8323 17.8048 45.4382 17.3503C46.0442 16.8656 46.5289 16.2293 46.8925 15.4416C47.2561 14.6539 47.4378 13.7753 47.4378 12.8058C47.4378 11.7757 47.2258 10.8819 46.8016 10.1245C46.3774 9.33674 45.8321 8.71564 45.1656 8.26119C44.5293 7.80673 43.8325 7.5795 43.0751 7.5795H35.4856V18.032Z" fill="#161616"/>
</g>
<g id="Group 23332">
<g id="Rectangle 34">
<path d="M29.1135 10.0267V34.3472H35.5043V10.0267C33.5427 9.4662 31.0751 9.4662 29.1135 10.0267Z" fill="#01497C"/>
<path d="M35.5043 27.4239C33.5427 26.8634 31.0751 26.8634 29.1135 27.4239V8.60649C31.0751 8.04603 33.5427 8.04603 35.5043 8.60649V27.4239Z" fill="#01497C"/>
<path d="M32.3089 1.68311C31.0534 1.68311 29.1135 2.03815 29.1135 2.03815V26.0037C31.0751 25.4432 33.5427 25.4432 35.5043 26.0037V2.03815C35.5043 2.03815 33.5645 1.68311 32.3089 1.68311Z" fill="#01497C"/>
<path d="M29.1135 27.4239C31.0751 26.8634 33.5427 26.8634 35.5043 27.4239V26.0037C33.5427 25.4432 31.0751 25.4432 29.1135 26.0037V27.4239Z" fill="#161616"/>
<path d="M29.1135 10.0267C31.0751 9.4662 33.5427 9.4662 35.5043 10.0267V8.60649C33.5427 8.04603 31.0751 8.04603 29.1135 8.60649V10.0267Z" fill="#161616"/>
</g>
<g id="Rectangle 41">
<path d="M20.8515 9.03216L14.5569 32.524L20.7299 34.1781L27.0246 10.6862C25.2748 9.63715 22.8913 8.99849 20.8515 9.03216Z" fill="#01497C"/>
<path d="M22.5218 27.4906C20.7721 26.4416 18.3886 25.8029 16.3488 25.8366L21.2191 7.66037C23.2589 7.62671 25.6424 8.26537 27.3921 9.31444L22.5218 27.4906Z" fill="#01497C"/>
<path d="M26.0975 1.79993C24.8847 1.47497 22.9191 1.31585 22.9191 1.31585L16.7164 24.4648C18.7562 24.4311 21.1397 25.0698 22.8894 26.1188L29.0921 2.96991C29.0921 2.96991 27.3103 2.1249 26.0975 1.79993Z" fill="#01497C"/>
<path d="M16.3488 25.8366C18.3886 25.8029 20.7721 26.4416 22.5218 27.4906L22.8894 26.1188C21.1397 25.0698 18.7562 24.4311 16.7164 24.4648L16.3488 25.8366Z" fill="#161616"/>
<path d="M20.8515 9.03216C22.8913 8.99849 25.2748 9.63715 27.0246 10.6862L27.3921 9.31444C25.6424 8.26537 23.2589 7.62671 21.2191 7.66037L20.8515 9.03216Z" fill="#161616"/>
</g>
<g id="Rectangle 42">
<path d="M12.1603 9.97402L-2.95441e-05 31.0363L5.53457 34.2317L17.6949 13.1694C16.2763 11.7032 14.1393 10.4695 12.1603 9.97402Z" fill="#01497C"/>
<path d="M8.99626 28.2358C7.57768 26.7697 5.44069 25.5359 3.46166 25.0404L12.8703 8.74412C14.8494 9.23955 16.9864 10.4733 18.4049 11.9395L8.99626 28.2358Z" fill="#01497C"/>
<path d="M19.0993 4.34599C18.012 3.71821 16.1545 3.05577 16.1545 3.05577L4.17174 23.8105C6.15078 24.306 8.28777 25.5398 9.70634 27.0059L21.6891 6.25117C21.6891 6.25117 20.1867 4.97377 19.0993 4.34599Z" fill="#01497C"/>
<path d="M3.46166 25.0404C5.44069 25.5359 7.57768 26.7697 8.99626 28.2358L9.70634 27.0059C8.28777 25.5398 6.15078 24.306 4.17174 23.8105L3.46166 25.0404Z" fill="#161616"/>
<path d="M12.1603 9.97402C14.1393 10.4695 16.2763 11.7032 17.6949 13.1694L18.4049 11.9395C16.9864 10.4733 14.8494 9.23955 12.8703 8.74412L12.1603 9.97402Z" fill="#161616"/>
</g>
</g>
</g>
</svg>
