<svg width="166" height="45" viewBox="0 0 166 45" fill="none" xmlns="http://www.w3.org/2000/svg">
<path d="M153.548 34.8018C151.639 34.8018 149.912 34.4837 148.367 33.8474C146.822 33.1809 145.504 32.2871 144.413 31.1661C143.322 30.0148 142.474 28.7121 141.868 27.2578C141.292 25.7732 141.005 24.2129 141.005 22.5769C141.005 20.3046 141.504 18.2292 142.504 16.3508C143.534 14.4724 144.989 12.9727 146.867 11.8517C148.776 10.7004 151.018 10.1248 153.593 10.1248C156.199 10.1248 158.425 10.7004 160.274 11.8517C162.122 12.9727 163.53 14.4724 164.5 16.3508C165.5 18.1989 166 20.1986 166 22.3497C166 22.7132 165.985 23.0919 165.954 23.4858C165.924 23.8494 165.894 24.1523 165.863 24.3947H147.458C147.579 25.6066 147.927 26.667 148.503 27.5759C149.109 28.4848 149.866 29.1817 150.775 29.6664C151.715 30.1209 152.714 30.3481 153.775 30.3481C154.987 30.3481 156.123 30.0603 157.183 29.4846C158.274 28.8787 159.016 28.091 159.41 27.1215L164.636 28.5757C164.061 29.7876 163.227 30.8632 162.137 31.8024C161.076 32.7416 159.819 33.4839 158.365 34.0292C156.911 34.5443 155.305 34.8018 153.548 34.8018ZM147.321 20.5318H159.774C159.652 19.3199 159.304 18.2747 158.728 17.3961C158.183 16.4872 157.456 15.7903 156.547 15.3056C155.638 14.7905 154.623 14.533 153.502 14.533C152.411 14.533 151.412 14.7905 150.503 15.3056C149.624 15.7903 148.897 16.4872 148.321 17.3961C147.776 18.2747 147.443 19.3199 147.321 20.5318Z" fill="#161616"/>
<path d="M114.184 25.4399V10.5337H120.274V24.122C120.274 25.9398 120.607 27.3183 121.274 28.2575C121.94 29.1664 122.925 29.6209 124.228 29.6209C125.015 29.6209 125.788 29.4694 126.545 29.1664C127.333 28.8332 128.045 28.3484 128.681 27.7122C129.348 27.0759 129.908 26.2731 130.363 25.3036V10.5337H136.452V27.5304C136.452 28.1666 136.559 28.6211 136.771 28.8938C137.013 29.1664 137.392 29.3331 137.907 29.3937V34.3473C137.301 34.4381 136.786 34.4987 136.362 34.529C135.968 34.5896 135.604 34.6199 135.271 34.6199C134.18 34.6199 133.286 34.3776 132.59 33.8928C131.923 33.3777 131.529 32.6809 131.408 31.8023L131.272 29.8936C130.211 31.4993 128.848 32.7264 127.182 33.5747C125.515 34.3927 123.682 34.8017 121.683 34.8017C119.229 34.8017 117.365 34.014 116.093 32.4385C114.82 30.8328 114.184 28.4999 114.184 25.4399Z" fill="#161616"/>
<path d="M94.6065 34.8018C93.0917 34.8018 91.698 34.4837 90.4255 33.8474C89.1531 33.1809 88.0472 32.2871 87.108 31.1661C86.1688 30.0451 85.4416 28.7272 84.9266 27.2124C84.4418 25.6975 84.1995 24.0917 84.1995 22.3951C84.1995 20.6682 84.4721 19.0624 85.0175 17.5779C85.5931 16.0933 86.3809 14.7905 87.3807 13.6695C88.3805 12.5485 89.5621 11.6851 90.9254 11.0791C92.2888 10.4429 93.7582 10.1248 95.3337 10.1248C97.1515 10.1248 98.7572 10.5489 100.151 11.3972C101.545 12.2153 102.681 13.306 103.559 14.6693V10.5338H108.876V44.0273H102.787V30.1663C100.969 33.2566 98.2422 34.8018 94.6065 34.8018ZM96.8788 29.621C97.7574 29.621 98.5452 29.4543 99.242 29.1211C99.9691 28.7878 100.621 28.3333 101.196 27.7577C101.802 27.1518 102.332 26.4701 102.787 25.7126V20.0774C102.635 19.4108 102.347 18.7897 101.923 18.2141C101.529 17.6385 101.045 17.1385 100.469 16.7144C99.9237 16.2599 99.3329 15.9115 98.6967 15.6691C98.0604 15.4268 97.4242 15.3056 96.7879 15.3056C95.8487 15.3056 94.9853 15.5025 94.1975 15.8964C93.4401 16.2902 92.7736 16.8356 92.1979 17.5324C91.6223 18.1989 91.183 18.9715 90.88 19.8501C90.577 20.6985 90.4255 21.6074 90.4255 22.5769C90.4255 23.8797 90.6982 25.0613 91.2435 26.1217C91.7889 27.1821 92.5463 28.0304 93.5158 28.6666C94.4853 29.3029 95.6063 29.621 96.8788 29.621Z" fill="#161616"/>
<path d="M69.0458 34.8018C67.1068 34.8018 65.3647 34.4837 63.8195 33.8474C62.2744 33.1809 60.9565 32.272 59.8658 31.1207C58.8054 29.9694 57.9873 28.6515 57.4117 27.1669C56.836 25.6823 56.5482 24.122 56.5482 22.486C56.5482 20.8197 56.836 19.2442 57.4117 17.7596C57.9873 16.2751 58.8054 14.9572 59.8658 13.8059C60.9565 12.6546 62.2744 11.7608 63.8195 11.1246C65.3647 10.458 67.1068 10.1248 69.0458 10.1248C70.9848 10.1248 72.7118 10.458 74.2266 11.1246C75.7718 11.7608 77.0897 12.6546 78.1804 13.8059C79.2711 14.9572 80.0891 16.2751 80.6345 17.7596C81.2101 19.2442 81.4979 20.8197 81.4979 22.486C81.4979 24.122 81.2101 25.6823 80.6345 27.1669C80.0891 28.6515 79.2711 29.9694 78.1804 31.1207C77.12 32.272 75.8172 33.1809 74.2721 33.8474C72.7269 34.4837 70.9848 34.8018 69.0458 34.8018ZM62.8197 22.486C62.8197 23.8797 63.0924 25.1218 63.6378 26.2125C64.1831 27.2729 64.9254 28.1061 65.8646 28.7121C66.8038 29.318 67.8642 29.621 69.0458 29.621C70.1971 29.621 71.2423 29.318 72.1815 28.7121C73.1208 28.0758 73.863 27.2275 74.4084 26.1671C74.984 25.0764 75.2719 23.8342 75.2719 22.4406C75.2719 21.0772 74.984 19.8501 74.4084 18.7594C73.863 17.6687 73.1208 16.8204 72.1815 16.2145C71.2423 15.6085 70.1971 15.3056 69.0458 15.3056C67.8642 15.3056 66.8038 15.6237 65.8646 16.2599C64.9254 16.8659 64.1831 17.7142 63.6378 18.8049C63.0924 19.8653 62.8197 21.0923 62.8197 22.486Z" fill="#161616"/>
<path d="M29.2144 34.347V2.08057H43.4844C44.9689 2.08057 46.3323 2.38354 47.5745 2.98948C48.847 3.59542 49.9377 4.41345 50.8466 5.44355C51.7858 6.47365 52.4978 7.62495 52.9825 8.89743C53.4976 10.1699 53.7551 11.4727 53.7551 12.8058C53.7551 14.1691 53.5127 15.4871 53.028 16.7595C52.5735 18.0017 51.907 19.0924 51.0284 20.0316C50.1497 20.9708 49.1196 21.698 47.9381 22.213L55.3003 34.347H48.3925L41.7574 23.531H35.4859V34.347H29.2144ZM35.4859 18.032H43.348C44.1358 18.032 44.8326 17.8048 45.4385 17.3503C46.0445 16.8656 46.5292 16.2293 46.8928 15.4416C47.2564 14.6539 47.4382 13.7753 47.4382 12.8058C47.4382 11.7757 47.2261 10.8819 46.8019 10.1245C46.3778 9.33674 45.8324 8.71564 45.1659 8.26119C44.5296 7.80673 43.8328 7.5795 43.0754 7.5795H35.4859V18.032Z" fill="#161616"/>
<path d="M29.114 10.0267V34.3472H35.5048V10.0267C33.5431 9.4662 31.0756 9.4662 29.114 10.0267Z" fill="#01497C"/>
<path d="M35.5048 27.4239C33.5431 26.8634 31.0756 26.8634 29.114 27.4239V8.60649C31.0756 8.04603 33.5431 8.04603 35.5048 8.60649V27.4239Z" fill="#01497C"/>
<path d="M32.3094 1.68311C31.0538 1.68311 29.114 2.03815 29.114 2.03815V26.0037C31.0756 25.4432 33.5431 25.4432 35.5048 26.0037V2.03815C35.5048 2.03815 33.5649 1.68311 32.3094 1.68311Z" fill="#01497C"/>
<path d="M29.114 27.4239C31.0756 26.8634 33.5431 26.8634 35.5048 27.4239V26.0037C33.5431 25.4432 31.0756 25.4432 29.114 26.0037V27.4239Z" fill="#161616"/>
<path d="M29.114 10.0267C31.0756 9.4662 33.5431 9.4662 35.5048 10.0267V8.60649C33.5431 8.04603 31.0756 8.04603 29.114 8.60649V10.0267Z" fill="#161616"/>
<path d="M20.8518 9.03216L14.5571 32.524L20.7302 34.1781L27.0248 10.6862C25.2751 9.63715 22.8916 8.99849 20.8518 9.03216Z" fill="#01497C"/>
<path d="M22.5221 27.4906C20.7724 26.4416 18.3889 25.8029 16.349 25.8366L21.2193 7.66037C23.2592 7.62671 25.6427 8.26537 27.3924 9.31444L22.5221 27.4906Z" fill="#01497C"/>
<path d="M26.0978 1.79993C24.885 1.47497 22.9193 1.31585 22.9193 1.31585L16.7166 24.4648C18.7564 24.4311 21.1399 25.0698 22.8896 26.1188L29.0924 2.96991C29.0924 2.96991 27.3105 2.1249 26.0978 1.79993Z" fill="#01497C"/>
<path d="M16.349 25.8366C18.3889 25.8029 20.7724 26.4416 22.5221 27.4906L22.8896 26.1188C21.1399 25.0698 18.7564 24.4311 16.7166 24.4648L16.349 25.8366Z" fill="#161616"/>
<path d="M20.8518 9.03216C22.8916 8.99849 25.2751 9.63715 27.0248 10.6862L27.3924 9.31444C25.6427 8.26537 23.2592 7.62671 21.2193 7.66037L20.8518 9.03216Z" fill="#161616"/>
<path d="M12.1606 9.97402L0.000337084 31.0363L5.53494 34.2317L17.6952 13.1694C16.2766 11.7032 14.1397 10.4695 12.1606 9.97402Z" fill="#01497C"/>
<path d="M8.99663 28.2358C7.57805 26.7697 5.44106 25.5359 3.46202 25.0404L12.8707 8.74412C14.8497 9.23955 16.9867 10.4733 18.4053 11.9395L8.99663 28.2358Z" fill="#01497C"/>
<path d="M19.0997 4.34599C18.0123 3.71821 16.1549 3.05577 16.1549 3.05577L4.17211 23.8105C6.15115 24.306 8.28813 25.5398 9.70671 27.0059L21.6895 6.25117C21.6895 6.25117 20.187 4.97377 19.0997 4.34599Z" fill="#01497C"/>
<path d="M3.46202 25.0404C5.44106 25.5359 7.57805 26.7697 8.99663 28.2358L9.70671 27.0059C8.28813 25.5398 6.15115 24.306 4.17211 23.8105L3.46202 25.0404Z" fill="#161616"/>
<path d="M12.1606 9.97402C14.1397 10.4695 16.2766 11.7032 17.6952 13.1694L18.4053 11.9395C16.9867 10.4733 14.8497 9.23955 12.8707 8.74412L12.1606 9.97402Z" fill="#161616"/>
</svg>
