<svg width="36" height="43" viewBox="0 0 36 43" fill="none" xmlns="http://www.w3.org/2000/svg">
<path d="M0.895752 42.9994V0.522705H19.6812C21.6355 0.522705 23.4303 0.921547 25.0656 1.71923C26.7407 2.51691 28.1765 3.59379 29.3731 4.94985C30.6095 6.30591 31.5468 7.82151 32.1849 9.49665C32.8629 11.1718 33.2019 12.8868 33.2019 14.6417C33.2019 16.4365 32.8829 18.1715 32.2447 19.8466C31.6465 21.4818 30.769 22.9177 29.6124 24.1541C28.4557 25.3905 27.0997 26.3477 25.5442 27.0257L35.236 42.9994H26.1424L17.4078 28.7607H9.15178V42.9994H0.895752ZM9.15178 21.5217H19.5017C20.5387 21.5217 21.4561 21.2226 22.2537 20.6243C23.0514 19.9862 23.6896 19.1486 24.1682 18.1116C24.6468 17.0746 24.8861 15.918 24.8861 14.6417C24.8861 13.2856 24.6069 12.1091 24.0485 11.112C23.4901 10.075 22.7722 9.25734 21.8948 8.65908C21.0572 8.06082 20.1399 7.76168 19.1428 7.76168H9.15178V21.5217Z" fill="#161616"/>
<path d="M0.763672 10.9835V42.9999H9.17674V10.9835C6.59441 10.2457 3.34601 10.2457 0.763672 10.9835Z" fill="#01497C"/>
<path d="M9.17674 33.8857C6.59441 33.1479 3.34601 33.1479 0.763672 33.8857V9.11393C3.346 8.37612 6.59441 8.37612 9.17674 9.11393V33.8857Z" fill="#01497C"/>
<path d="M4.97021 -0.000244141C3.31734 -0.000244141 0.763672 0.467149 0.763672 0.467149V32.0162C3.346 31.2784 6.59441 31.2784 9.17674 32.0162V0.467149C9.17674 0.467149 6.62307 -0.000244141 4.97021 -0.000244141Z" fill="#01497C"/>
<path d="M0.763672 33.8857C3.34601 33.1479 6.59441 33.1479 9.17674 33.8857V32.0162C6.59441 31.2784 3.346 31.2784 0.763672 32.0162V33.8857Z" fill="#161616"/>
<path d="M0.763672 10.9835C3.34601 10.2457 6.59441 10.2457 9.17674 10.9835V9.11393C6.59441 8.37612 3.346 8.37612 0.763672 9.11393V10.9835Z" fill="#161616"/>
</svg>
