<svg width="114" height="36" viewBox="0 0 114 36" fill="none" xmlns="http://www.w3.org/2000/svg">
<g id="Group 23331">
<path id="x" d="M28.2368 36L16.4135 20.8457L15.3703 19.5429L0 0H9.04135L20.656 14.9486L21.8383 16.4571L37 36H28.2368ZM0.0695489 36L14.4662 17.4857L18.7086 22.4914L8.55451 36H0.0695489ZM22.2556 18.5829L18.2914 13.6457L27.2632 0H35.7481L22.2556 18.5829Z" fill="#01497C"/>
<g id="NOME">
<path d="M47 35.7778V20.2222H49.2562L59.2116 32.9556L58.8395 33.1556C58.7774 32.7852 58.7232 32.3852 58.6766 31.9556C58.6301 31.5111 58.5836 31.0444 58.5371 30.5556C58.5061 30.0519 58.475 29.5259 58.444 28.9778C58.4285 28.4148 58.413 27.8296 58.3975 27.2222C58.382 26.6148 58.3743 25.9852 58.3743 25.3333V20.2222H60.8864V35.7778H58.5836L48.791 23.5111L49.0469 23.2C49.1244 24.1037 49.1865 24.8741 49.233 25.5111C49.295 26.1333 49.3415 26.6667 49.3725 27.1111C49.4191 27.5407 49.4501 27.8963 49.4656 28.1778C49.4811 28.4444 49.4888 28.6667 49.4888 28.8444C49.5044 29.0222 49.5121 29.1778 49.5121 29.3111V35.7778H47Z" fill="#161616"/>
<path d="M72.2599 36C71.1124 36 70.0502 35.8 69.0732 35.4C68.1118 35 67.2667 34.4444 66.5379 33.7333C65.8246 33.0074 65.2663 32.163 64.8631 31.2C64.4755 30.2222 64.2816 29.1556 64.2816 28C64.2816 26.8444 64.4755 25.7852 64.8631 24.8222C65.2663 23.8444 65.8246 23 66.5379 22.2889C67.2667 21.563 68.1118 21 69.0732 20.6C70.0502 20.2 71.1124 20 72.2599 20C73.4074 20 74.4619 20.2 75.4233 20.6C76.4002 21 77.2453 21.563 77.9586 22.2889C78.6875 23.0148 79.2457 23.8667 79.6334 24.8444C80.0366 25.8074 80.2381 26.8593 80.2381 28C80.2381 29.1407 80.0366 30.2 79.6334 31.1778C79.2457 32.1407 78.6875 32.9852 77.9586 33.7111C77.2453 34.437 76.4002 35 75.4233 35.4C74.4619 35.8 73.4074 36 72.2599 36ZM72.2599 33.6667C73.0507 33.6667 73.7718 33.5259 74.4231 33.2444C75.0899 32.963 75.6636 32.5704 76.1443 32.0667C76.6251 31.5481 76.9972 30.9481 77.2608 30.2667C77.54 29.5704 77.6795 28.8148 77.6795 28C77.6795 27.1852 77.54 26.437 77.2608 25.7556C76.9972 25.0593 76.6251 24.4593 76.1443 23.9556C75.6636 23.437 75.0899 23.037 74.4231 22.7556C73.7718 22.4741 73.0507 22.3333 72.2599 22.3333C71.469 22.3333 70.7402 22.4741 70.0734 22.7556C69.4221 23.037 68.8484 23.4296 68.3522 23.9333C67.8715 24.437 67.4993 25.037 67.2357 25.7333C66.9721 26.4148 66.8402 27.1704 66.8402 28C66.8402 28.8148 66.9721 29.5704 67.2357 30.2667C67.4993 30.963 67.8715 31.563 68.3522 32.0667C68.8484 32.5704 69.4221 32.963 70.0734 33.2444C70.7402 33.5259 71.469 33.6667 72.2599 33.6667Z" fill="#161616"/>
<path d="M83.6394 35.7778V20.2222H86.105L92.0363 29.4444L90.8501 29.4222L96.8512 20.2222H99.1772V35.7778H96.6651V29.4C96.6651 28.0667 96.6961 26.8667 96.7582 25.8C96.8357 24.7333 96.9598 23.6741 97.1303 22.6222L97.456 23.4444L92.1294 31.3111H90.5942L85.4304 23.5333L85.6863 22.6222C85.8569 23.6148 85.9732 24.637 86.0352 25.6889C86.1127 26.7259 86.1515 27.963 86.1515 29.4V35.7778H83.6394Z" fill="#161616"/>
<path d="M103.742 35.7778V20.2222H114V22.5333H106.254V33.4667H114V35.7778H103.742ZM104.882 28.9556V26.6444H112.721V28.9556H104.882Z" fill="#161616"/>
</g>
</g>
</svg>
