<svg width="318" height="84" viewBox="0 0 318 84" fill="none" xmlns="http://www.w3.org/2000/svg">
<path d="M293.721 65.4918C290.076 65.4918 286.778 64.8843 283.827 63.6693C280.877 62.3965 278.36 60.6897 276.277 58.549C274.194 56.3504 272.574 53.8626 271.417 51.0855C270.318 48.2505 269.768 45.2709 269.768 42.1466C269.768 37.8073 270.723 33.8441 272.632 30.257C274.599 26.6699 277.376 23.806 280.963 21.6653C284.608 19.4667 288.89 18.3674 293.808 18.3674C298.783 18.3674 303.036 19.4667 306.565 21.6653C310.094 23.806 312.785 26.6699 314.636 30.257C316.545 33.7863 317.5 37.6048 317.5 41.7127C317.5 42.4069 317.471 43.1302 317.413 43.8823C317.355 44.5766 317.297 45.1551 317.24 45.618H282.092C282.323 47.9323 282.988 49.9573 284.088 51.693C285.245 53.4287 286.691 54.7594 288.427 55.6851C290.22 56.5529 292.13 56.9869 294.155 56.9869C296.469 56.9869 298.639 56.4372 300.664 55.3379C302.746 54.1808 304.164 52.6765 304.916 50.8251L314.896 53.6022C313.797 55.9165 312.206 57.9704 310.123 59.764C308.098 61.5576 305.697 62.975 302.92 64.0165C300.143 65 297.076 65.4918 293.721 65.4918ZM281.831 38.2413H305.61C305.379 35.927 304.714 33.9309 303.614 32.2531C302.573 30.5174 301.184 29.1867 299.449 28.261C297.713 27.2774 295.775 26.7856 293.634 26.7856C291.551 26.7856 289.642 27.2774 287.906 28.261C286.228 29.1867 284.84 30.5174 283.74 32.2531C282.699 33.9309 282.063 35.927 281.831 38.2413Z" fill="white"/>
<path d="M218.551 47.6144V19.1488H230.18V45.0976C230.18 48.569 230.816 51.2015 232.089 52.9951C233.362 54.7308 235.242 55.5986 237.73 55.5986C239.234 55.5986 240.71 55.3093 242.156 54.7308C243.66 54.0943 245.02 53.1686 246.235 51.9536C247.508 50.7386 248.578 49.2054 249.446 47.354V19.1488H261.075V51.6065C261.075 52.8215 261.278 53.6893 261.683 54.21C262.146 54.7308 262.869 55.049 263.852 55.1647V64.6243C262.695 64.7978 261.712 64.9136 260.902 64.9714C260.15 65.0871 259.455 65.145 258.819 65.145C256.736 65.145 255.029 64.6821 253.699 63.7564C252.426 62.7729 251.674 61.4422 251.442 59.7643L251.182 56.1193C249.157 59.1857 246.553 61.5289 243.371 63.1489C240.189 64.7111 236.689 65.4921 232.87 65.4921C228.184 65.4921 224.626 63.9879 222.196 60.9793C219.766 57.9129 218.551 53.4579 218.551 47.6144Z" fill="white"/>
<path d="M181.164 65.4918C178.272 65.4918 175.61 64.8843 173.18 63.6693C170.75 62.3965 168.638 60.6897 166.845 58.549C165.051 56.4083 163.663 53.8915 162.679 50.9987C161.753 48.1058 161.291 45.0394 161.291 41.7994C161.291 38.5016 161.811 35.4352 162.853 32.6002C163.952 29.7652 165.456 27.2774 167.365 25.1367C169.275 22.996 171.531 21.3471 174.135 20.1899C176.738 18.9749 179.544 18.3674 182.553 18.3674C186.024 18.3674 189.091 19.1774 191.752 20.7974C194.414 22.3596 196.583 24.4424 198.261 27.046V19.1485H208.415V83.1092H196.786V56.6397C193.314 62.5411 188.107 65.4918 181.164 65.4918ZM185.504 55.5983C187.181 55.5983 188.686 55.2801 190.016 54.6437C191.405 54.0072 192.649 53.1394 193.748 52.0401C194.905 50.883 195.918 49.5812 196.786 48.1348V37.3734C196.496 36.1006 195.947 34.9145 195.137 33.8152C194.385 32.7159 193.459 31.7613 192.36 30.9513C191.318 30.0834 190.19 29.4181 188.975 28.9552C187.76 28.4924 186.545 28.261 185.33 28.261C183.536 28.261 181.888 28.637 180.383 29.3892C178.937 30.1413 177.664 31.1827 176.565 32.5134C175.465 33.7863 174.627 35.2616 174.048 36.9395C173.469 38.5595 173.18 40.2952 173.18 42.1466C173.18 44.6344 173.701 46.8909 174.742 48.9158C175.784 50.9408 177.23 52.5608 179.082 53.7758C180.933 54.9908 183.074 55.5983 185.504 55.5983Z" fill="white"/>
<path d="M132.353 65.4918C128.65 65.4918 125.323 64.8843 122.372 63.6693C119.422 62.3965 116.905 60.6608 114.822 58.4622C112.797 56.2637 111.235 53.7469 110.135 50.9119C109.036 48.0769 108.487 45.0973 108.487 41.973C108.487 38.7909 109.036 35.7823 110.135 32.9474C111.235 30.1124 112.797 27.5956 114.822 25.397C116.905 23.1985 119.422 21.4917 122.372 20.2767C125.323 19.0039 128.65 18.3674 132.353 18.3674C136.055 18.3674 139.353 19.0039 142.246 20.2767C145.197 21.4917 147.713 23.1985 149.796 25.397C151.879 27.5956 153.441 30.1124 154.483 32.9474C155.582 35.7823 156.132 38.7909 156.132 41.973C156.132 45.0973 155.582 48.0769 154.483 50.9119C153.441 53.7469 151.879 56.2637 149.796 58.4622C147.771 60.6608 145.284 62.3965 142.333 63.6693C139.382 64.8843 136.055 65.4918 132.353 65.4918ZM120.463 41.973C120.463 44.6344 120.984 47.0066 122.025 49.0894C123.066 51.1144 124.484 52.7055 126.278 53.8626C128.071 55.0197 130.096 55.5983 132.353 55.5983C134.551 55.5983 136.547 55.0197 138.341 53.8626C140.134 52.6476 141.552 51.0276 142.593 49.0026C143.692 46.9198 144.242 44.5476 144.242 41.8862C144.242 39.2827 143.692 36.9395 142.593 34.8566C141.552 32.7738 140.134 31.1538 138.341 29.9967C136.547 28.8395 134.551 28.261 132.353 28.261C130.096 28.261 128.071 28.8685 126.278 30.0834C124.484 31.2406 123.066 32.8606 122.025 34.9434C120.984 36.9684 120.463 39.3116 120.463 41.973Z" fill="white"/>
<path d="M56.2886 64.6236V3.0061H83.5391C86.3741 3.0061 88.9777 3.58467 91.3498 4.74181C93.7798 5.89895 95.8626 7.46108 97.5983 9.42821C99.3919 11.3953 100.752 13.5939 101.677 16.0239C102.661 18.4539 103.153 20.9417 103.153 23.4874C103.153 26.091 102.69 28.6078 101.764 31.0377C100.896 33.4099 99.6233 35.4927 97.9455 37.2863C96.2676 39.0798 94.3005 40.4684 92.0441 41.452L106.103 64.6236H92.9119L80.2413 43.9687H68.2649V64.6236H56.2886ZM68.2649 33.4677H83.2788C84.7831 33.4677 86.1138 33.0338 87.2709 32.1659C88.428 31.2402 89.3538 30.0252 90.048 28.521C90.7423 27.0167 91.0895 25.3388 91.0895 23.4874C91.0895 21.5203 90.6845 19.8135 89.8745 18.3671C89.0645 16.8628 88.023 15.6768 86.7502 14.8089C85.5352 13.941 84.2045 13.5071 82.7581 13.5071H68.2649V33.4677Z" fill="white"/>
<path d="M56.0967 18.1801V64.6237H68.3009V18.1801C64.5549 17.1098 59.8427 17.1098 56.0967 18.1801Z" fill="#01497C"/>
<path d="M68.3009 51.4025C64.5549 50.3323 59.8427 50.3323 56.0967 51.4025V15.468C59.8427 14.3978 64.5549 14.3978 68.3009 15.468V51.4025Z" fill="#01497C"/>
<path d="M62.1988 2.24683C59.8011 2.24683 56.0967 2.92484 56.0967 2.92484V48.6905C59.8427 47.6202 64.5549 47.6202 68.3009 48.6905V2.92484C68.3009 2.92484 64.5964 2.24683 62.1988 2.24683Z" fill="#01497C"/>
<path d="M56.0967 51.4025C59.8427 50.3323 64.5549 50.3323 68.3009 51.4025V48.6905C64.5549 47.6202 59.8427 47.6202 56.0967 48.6905V51.4025Z" fill="white"/>
<path d="M56.0967 18.1801C59.8427 17.1098 64.5549 17.1098 68.3009 18.1801V15.468C64.5549 14.3978 59.8427 14.3978 56.0967 15.468V18.1801Z" fill="white"/>
<path d="M40.3188 16.2809L28.2983 61.1421L40.0866 64.3008L52.1071 19.4396C48.7658 17.4363 44.2142 16.2167 40.3188 16.2809Z" fill="#01497C"/>
<path d="M43.5085 51.5301C40.1672 49.5267 35.6155 48.3071 31.7202 48.3714L41.0207 13.6613C44.9161 13.5971 49.4677 14.8167 52.8091 16.82L43.5085 51.5301Z" fill="#01497C"/>
<path d="M50.3368 2.46996C48.0208 1.8494 44.2671 1.54553 44.2671 1.54553L32.4221 45.7518C36.3175 45.6875 40.8691 46.9071 44.2104 48.9105L56.0555 4.70421C56.0555 4.70421 52.6528 3.09053 50.3368 2.46996Z" fill="#01497C"/>
<path d="M31.7202 48.3714C35.6155 48.3071 40.1672 49.5267 43.5085 51.5301L44.2104 48.9105C40.8691 46.9071 36.3175 45.6875 32.4221 45.7518L31.7202 48.3714Z" fill="white"/>
<path d="M40.3188 16.2809C44.2142 16.2167 48.7658 17.4363 52.1071 19.4396L52.8091 16.82C49.4677 14.8167 44.9161 13.5971 41.0207 13.6613L40.3188 16.2809Z" fill="white"/>
<path d="M23.7219 18.0796L0.500027 58.301L11.0692 64.4031L34.291 24.1817C31.582 21.3818 27.5011 19.0257 23.7219 18.0796Z" fill="#01497C"/>
<path d="M17.6797 52.9532C14.9708 50.1533 10.8899 47.7972 7.11062 46.8511L25.0779 15.7309C28.8571 16.677 32.938 19.0331 35.647 21.833L17.6797 52.9532Z" fill="#01497C"/>
<path d="M36.973 7.33205C34.8966 6.13321 31.3495 4.86818 31.3495 4.86818L8.46663 44.5024C12.2459 45.4485 16.3268 47.8046 19.0358 50.6045L41.9186 10.9703C41.9186 10.9703 39.0495 8.53089 36.973 7.33205Z" fill="#01497C"/>
<path d="M7.11062 46.8511C10.8899 47.7972 14.9708 50.1533 17.6797 52.9532L19.0358 50.6045C16.3268 47.8046 12.2459 45.4485 8.46663 44.5024L7.11062 46.8511Z" fill="white"/>
<path d="M23.7219 18.0796C27.5011 19.0257 31.582 21.3818 34.291 24.1817L35.647 21.833C32.938 19.0331 28.8571 16.677 25.0779 15.7309L23.7219 18.0796Z" fill="white"/>
</svg>
