<svg width="26" height="25" viewBox="0 0 26 25" fill="none" xmlns="http://www.w3.org/2000/svg">
<path id="Caminho 836" d="M1.5 1.00775H3.0109C3.19343 0.98754 3.37815 1.00693 3.55226 1.06501C3.65248 1.10937 3.73796 1.18134 3.79869 1.27214C3.87732 1.43787 3.92105 1.61778 3.92712 1.80091L4.47428 5.60618M4.47428 5.60618L5.6913 14.4926C5.71626 15.2239 5.88732 15.9427 6.19453 16.6077C6.43141 16.9849 6.77457 17.2847 7.18136 17.4699C7.88677 17.6803 8.62698 17.7509 9.35973 17.677H19.2601C19.9604 17.7461 20.6676 17.6798 21.3425 17.4817C21.7366 17.3099 22.0739 17.0307 22.3154 16.6767C22.6364 16.0574 22.8328 15.3819 22.8938 14.6879L24.4256 6.69853C24.4999 6.46852 24.5189 6.22427 24.4811 5.98564C24.4343 5.85966 24.3447 5.75362 24.2277 5.68645C24.0005 5.60309 23.7565 5.57569 23.5163 5.60618H4.47428ZM10.7549 22.8503C10.7549 23.0776 10.6871 23.3 10.5599 23.4891C10.4328 23.6781 10.2521 23.8253 10.0408 23.9123C9.82937 23.9993 9.59678 24.0223 9.37237 23.978C9.14796 23.9336 8.94182 23.8238 8.78003 23.6631C8.61824 23.5023 8.50806 23.2978 8.46342 23.0748C8.41878 22.8518 8.44167 22.6202 8.52923 22.4102C8.61679 22.2001 8.76511 22.0206 8.95535 21.8943C9.1456 21.768 9.36923 21.7007 9.59804 21.7007C9.90486 21.7007 10.1991 21.8219 10.416 22.0375C10.633 22.253 10.7549 22.5454 10.7549 22.8503ZM20.0098 22.8503C20.0098 23.0776 19.942 23.3 19.8148 23.4891C19.6877 23.6781 19.507 23.8253 19.2957 23.9123C19.0843 23.9993 18.8517 24.0223 18.6273 23.978C18.4029 23.9336 18.1967 23.8238 18.0349 23.6631C17.8731 23.5023 17.763 23.2978 17.7183 23.0748C17.6737 22.8518 17.6966 22.6202 17.7841 22.4102C17.8717 22.2001 18.02 22.0206 18.2103 21.8943C18.4005 21.768 18.6241 21.7007 18.8529 21.7007C19.1598 21.7007 19.454 21.8219 19.6709 22.0375C19.8879 22.253 20.0098 22.5454 20.0098 22.8503Z" stroke="white" stroke-width="2" stroke-linecap="round" stroke-linejoin="round"/>
</svg>
