<svg width="31" height="30" viewBox="0 0 31 30" fill="none" xmlns="http://www.w3.org/2000/svg">
<path id="Caminho 836" d="M1.5 1.00944H3.33935C3.56156 0.984831 3.78644 1.00844 3.9984 1.07914C4.12041 1.13314 4.22447 1.22076 4.2984 1.3313C4.39413 1.53306 4.44736 1.75208 4.45476 1.97502L5.12086 6.60752M5.12086 6.60752L6.60245 17.4258C6.63283 18.316 6.84108 19.1912 7.21508 20.0007C7.50345 20.4599 7.92121 20.8249 8.41644 21.0503C9.2752 21.3065 10.1763 21.3924 11.0684 21.3025H23.121C23.9736 21.3866 24.8344 21.3059 25.6561 21.0647C26.1359 20.8555 26.5465 20.5157 26.8405 20.0847C27.2312 19.3308 27.4704 18.5084 27.5447 17.6636L29.4094 7.93734C29.4999 7.65733 29.523 7.35998 29.4769 7.06947C29.4201 6.9161 29.3109 6.78701 29.1685 6.70524C28.892 6.60376 28.5948 6.5704 28.3024 6.60752H5.12086ZM12.7668 27.6003C12.7668 27.8771 12.6843 28.1478 12.5295 28.378C12.3748 28.6081 12.1548 28.7873 11.8974 28.8932C11.6401 28.9992 11.3569 29.0272 11.0838 28.9732C10.8106 28.9192 10.5596 28.7855 10.3626 28.5898C10.1657 28.3941 10.0315 28.1451 9.9772 27.8737C9.92286 27.6022 9.95072 27.3203 10.0573 27.0646C10.1639 26.8088 10.3445 26.5903 10.5761 26.4366C10.8077 26.2828 11.0799 26.2008 11.3585 26.2008C11.732 26.2008 12.0902 26.3484 12.3543 26.6108C12.6184 26.8733 12.7668 27.2291 12.7668 27.6003ZM24.0337 27.6003C24.0337 27.8771 23.9511 28.1478 23.7963 28.378C23.6416 28.6081 23.4216 28.7873 23.1643 28.8932C22.9069 28.9992 22.6238 29.0272 22.3506 28.9732C22.0774 28.9192 21.8264 28.7855 21.6295 28.5898C21.4325 28.3941 21.2984 28.1451 21.244 27.8737C21.1897 27.6022 21.2176 27.3203 21.3242 27.0646C21.4307 26.8088 21.6113 26.5903 21.8429 26.4366C22.0745 26.2828 22.3468 26.2008 22.6253 26.2008C22.9988 26.2008 23.357 26.3484 23.6212 26.6108C23.8853 26.8733 24.0337 27.2291 24.0337 27.6003Z" stroke="#161616" stroke-width="2" stroke-linecap="round" stroke-linejoin="round"/>
</svg>
