<svg width="30" height="31" viewBox="0 0 30 31" fill="none" xmlns="http://www.w3.org/2000/svg">
<path d="M6.69481 14.8924C6.61049 14.3245 6.56848 13.751 6.56938 13.1768C6.56587 11.5293 6.92391 9.90117 7.6184 8.40782C8.31288 6.91448 9.32672 5.59248 10.588 4.53535C11.8493 3.47822 13.3272 2.7119 14.917 2.29067C16.5068 1.86944 18.1698 1.80367 19.7878 2.09792C21.4059 2.39217 22.9397 3.03923 24.2803 3.99338C25.6209 4.94752 26.7354 6.18533 27.5453 7.61913C28.3552 9.05292 28.8406 10.6476 28.9669 12.2902C29.0931 13.9328 28.8574 15.5831 28.2762 17.1242C28.1787 17.3892 28.1228 17.5149 28.095 17.6125C28.0788 17.7 28.0695 17.7885 28.0671 17.8774C28.072 18.0269 28.086 18.1759 28.1089 18.3237L28.6661 22.8849C28.7497 23.1855 28.7541 23.5026 28.6796 23.8056C28.6037 23.9609 28.4758 24.0844 28.318 24.1543C28.0141 24.2221 27.698 24.2125 27.3988 24.1264L22.9712 23.4708C22.7345 23.4429 22.623 23.415 22.5117 23.415C22.4179 23.4221 22.3249 23.4361 22.2333 23.4569C22.062 23.4992 21.8942 23.5551 21.7319 23.6243C20.467 24.0971 19.1278 24.338 17.7778 24.3357C17.2046 24.3365 16.6322 24.2946 16.0653 24.2102M8.83874 29.9151C10.3605 29.9511 11.8586 29.532 13.1415 28.7113C14.4245 27.8905 15.434 26.7053 16.0415 25.307C16.6489 23.9088 16.8268 22.3608 16.552 20.8609C16.2773 19.361 15.5626 17.9771 14.4992 16.886C13.4358 15.7948 12.0718 15.0461 10.5815 14.7351C9.09133 14.4241 7.54245 14.5651 6.13257 15.14C4.7227 15.7149 3.51606 16.6977 2.66633 17.9629C1.81659 19.2282 1.36245 20.7184 1.36202 22.2434C1.3625 23.0725 1.49412 23.8964 1.75192 24.6844C1.86331 25.0052 1.90492 25.1587 1.93276 25.2703C1.94435 25.3721 1.94902 25.4746 1.9467 25.5771C1.93278 25.6887 1.90517 25.8142 1.84948 26.0653L1 29.9151L5.1631 29.3432C5.31078 29.3214 5.4596 29.3075 5.60874 29.3014C5.69785 29.2962 5.78713 29.3055 5.87321 29.3292C6.05283 29.3741 6.22937 29.4299 6.40213 29.4966C7.18546 29.7708 8.00896 29.9123 8.83874 29.9151Z" stroke="white" stroke-width="2" stroke-linecap="round" stroke-linejoin="round"/>
</svg>
