<svg width="22" height="22" viewBox="0 0 22 22" fill="none" xmlns="http://www.w3.org/2000/svg">
<path d="M6.5 11L9.5 14L15.5 8M21 11C21 12.9778 20.4135 14.9112 19.3147 16.5557C18.2159 18.2002 16.6541 19.4819 14.8268 20.2388C12.9996 20.9956 10.9889 21.1937 9.0491 20.8079C7.10929 20.422 5.32746 19.4696 3.92894 18.071C2.53041 16.6725 1.578 14.8907 1.19215 12.9509C0.806299 11.0111 1.00434 9.00048 1.76121 7.17322C2.51809 5.34596 3.79981 3.78412 5.4443 2.6853C7.08879 1.58649 9.02219 1 11 1C13.6522 1 16.1957 2.05359 18.0711 3.92896C19.9464 5.80432 21 8.34784 21 11Z" stroke="#A2A2A2" stroke-width="1.5" stroke-linecap="round" stroke-linejoin="round"/>
</svg>
