<svg width="22" height="20" viewBox="0 0 22 20" fill="none" xmlns="http://www.w3.org/2000/svg">
<path id="Caminho 1439" d="M21 18.981V16.9853C21.0007 16.1005 20.7069 15.2407 20.1648 14.5414C19.6228 13.8422 18.8633 13.3433 18.0063 13.1234M14.5137 1.30835C15.2519 1.6059 15.8844 2.11735 16.3298 2.77705C16.7752 3.43676 17.0132 4.21454 17.0132 5.0105C17.0132 5.80647 16.7752 6.58425 16.3298 7.24395C15.8844 7.90366 15.2519 8.41511 14.5137 8.71266M16.0105 18.981C16.1189 17.7984 16.0175 16.6059 15.7111 15.4584C15.3018 14.4802 14.524 13.7024 13.5457 13.2931C12.3983 12.9867 11.2058 12.8853 10.0231 12.9937H7.02946C5.8468 12.8853 4.65426 12.9867 3.50685 13.2931C2.52862 13.7024 1.75085 14.4802 1.3415 15.4584C1.03509 16.6059 0.933697 17.7984 1.04208 18.981M12.5179 5.0105C12.5179 5.79997 12.2838 6.57171 11.8452 7.22812C11.4066 7.88453 10.7832 8.39617 10.0538 8.69829C9.32447 9.0004 8.52184 9.07936 7.74755 8.92535C6.97326 8.77133 6.26211 8.39116 5.70388 7.83292C5.14565 7.27469 4.76547 6.56355 4.61146 5.78926C4.45744 5.01497 4.53641 4.21233 4.83852 3.48296C5.14063 2.7536 5.65227 2.13018 6.30869 1.69157C6.9651 1.25297 7.73684 1.01892 8.5263 1.01892C9.58493 1.01892 10.6002 1.43952 11.3487 2.18809C12.0973 2.93665 12.5179 3.95187 12.5179 5.0105Z" stroke="#454545" stroke-width="1.5" stroke-linecap="round" stroke-linejoin="round"/>
</svg>
