<svg width="20" height="20" viewBox="0 0 20 20" fill="none" xmlns="http://www.w3.org/2000/svg">
<path id="Caminho 217" d="M19.0079 18.9922H2.60797C2.2542 19.0325 1.89586 18.9953 1.55792 18.8832C1.36734 18.7896 1.21281 18.6361 1.11798 18.4462C1.0052 18.107 0.96756 17.7474 1.00787 17.3922V0.992188M18.0079 5.99219L14.0879 10.1752C14.0019 10.2855 13.8969 10.3796 13.7779 10.4532C13.6997 10.4891 13.6136 10.5043 13.5279 10.4972C13.3891 10.4689 13.2567 10.415 13.1378 10.3382L9.87799 8.64618C9.75902 8.56935 9.62662 8.51543 9.48785 8.48718C9.40212 8.4801 9.31601 8.49526 9.23785 8.53119C9.11884 8.60473 9.01381 8.69888 8.92779 8.8092L5.00787 12.9922" stroke="white" stroke-width="1.5" stroke-linecap="round" stroke-linejoin="round"/>
</svg>
