<svg width="22" height="20" viewBox="0 0 22 20" fill="none" xmlns="http://www.w3.org/2000/svg">
<path d="M15.0309 14.0313V4.23154C15.1104 3.52071 15.036 2.80075 14.8129 2.12119C14.6195 1.7471 14.3139 1.44326 13.9389 1.25156C13.2605 1.02605 12.5412 0.950759 11.8309 1.03135H4.2309C3.52059 0.950759 2.80123 1.02605 2.12287 1.25156C1.74789 1.44326 1.44232 1.7471 1.24891 2.12119C1.02577 2.80075 0.951401 3.52071 1.03089 4.23154V10.8312C0.951401 11.542 1.02577 12.2619 1.24891 12.9415C1.44232 13.3156 1.74789 13.6194 2.12287 13.8111C2.80123 14.0366 3.52059 14.1119 4.2309 14.0313H15.0309ZM15.0309 14.0313H19.4309C19.7861 14.0715 20.1457 14.0341 20.4849 13.9215C20.6747 13.8265 20.8282 13.672 20.9219 13.4815C21.034 13.1436 21.0712 12.785 21.0309 12.4312V9.6915C21.0397 9.53096 21.0303 9.36995 21.0029 9.21152C20.9781 9.10941 20.938 9.0116 20.8839 8.92148C20.7908 8.78946 20.6828 8.6683 20.5619 8.56113L18.4999 6.50156C18.3919 6.3817 18.2708 6.27405 18.1389 6.18125C18.0516 6.12226 17.9533 6.08133 17.8499 6.06113C17.691 6.03156 17.5292 6.0217 17.3679 6.03135H15.0309M8.03089 16.5313C8.03089 17.0258 7.88427 17.5094 7.60956 17.9205C7.33486 18.3316 6.94443 18.6517 6.48761 18.8409C6.0308 19.0301 5.52811 19.08 5.04316 18.9835C4.5582 18.887 4.11276 18.6486 3.76313 18.2989C3.4135 17.9493 3.17539 17.5041 3.07892 17.0191C2.98246 16.5342 3.03198 16.0316 3.2212 15.5748C3.41041 15.118 3.73085 14.7274 4.14197 14.4527C4.55309 14.178 5.03643 14.0313 5.53089 14.0313C6.19393 14.0313 6.82981 14.2949 7.29865 14.7638C7.76749 15.2326 8.03089 15.8683 8.03089 16.5313ZM19.0309 16.5313C19.0309 17.0258 18.8843 17.5094 18.6096 17.9205C18.3349 18.3316 17.9444 18.6517 17.4876 18.8409C17.0308 19.0301 16.5281 19.08 16.0432 18.9835C15.5582 18.887 15.1128 18.6486 14.7631 18.2989C14.4135 17.9493 14.1754 17.5041 14.0789 17.0191C13.9825 16.5342 14.032 16.0316 14.2212 15.5748C14.4104 15.118 14.7308 14.7274 15.142 14.4527C15.5531 14.178 16.0364 14.0313 16.5309 14.0313C17.1939 14.0313 17.8298 14.2949 18.2986 14.7638C18.7675 15.2326 19.0309 15.8683 19.0309 16.5313Z" stroke="#A2A2A2" stroke-width="1.5" stroke-linecap="round" stroke-linejoin="round"/>
</svg>
