<svg width="22" height="18" viewBox="0 0 22 18" fill="none" xmlns="http://www.w3.org/2000/svg">
<g id="Vector">
<path d="M19.8648 12.2324C18.7944 13.5548 17.4442 14.6236 15.9114 15.3619C14.3786 16.1003 12.7013 16.4898 11 16.5026C9.29849 16.491 7.62075 16.102 6.08779 15.3636C4.55482 14.6251 3.20484 13.5557 2.13519 12.2324C1.40039 11.3153 1 10.1752 1 8.99997C1 7.8248 1.40039 6.68469 2.13519 5.76756C3.20565 4.44518 4.5558 3.37639 6.08858 2.63804C7.62137 1.89969 9.2987 1.51011 11 1.49731C12.7015 1.5089 14.3792 1.89794 15.9122 2.63638C17.4452 3.37482 18.7952 4.44426 19.8648 5.76756C20.5996 6.68469 21 7.8248 21 8.99997C21 10.1752 20.5996 11.3153 19.8648 12.2324Z" stroke="#A2A2A2" stroke-width="1.5" stroke-linecap="round" stroke-linejoin="round"/>
<path d="M10.9999 12.3295C10.3413 12.3295 9.69754 12.1343 9.14997 11.7684C8.6024 11.4025 8.17563 10.8825 7.92361 10.2741C7.67159 9.66563 7.60565 8.99613 7.73413 8.35023C7.86261 7.70433 8.17973 7.11103 8.6454 6.64537C9.11107 6.1797 9.70436 5.86257 10.3503 5.7341C10.9962 5.60562 11.6657 5.67156 12.2741 5.92358C12.8825 6.17559 13.4025 6.60237 13.7684 7.14994C14.1343 7.69751 14.3296 8.34127 14.3296 8.99983C14.3296 9.88292 13.9788 10.7298 13.3543 11.3543C12.7299 11.9787 11.883 12.3295 10.9999 12.3295Z" stroke="#A2A2A2" stroke-width="1.5" stroke-linecap="round" stroke-linejoin="round"/>
</g>
</svg>
