<svg width="23" height="23" viewBox="0 0 23 23" fill="none" xmlns="http://www.w3.org/2000/svg">
<path id="Caminho 1184" d="M10.4712 3.60368H6.3062C5.24982 3.48501 4.18028 3.59565 3.17054 3.92798C2.6111 4.21365 2.15612 4.6686 1.87045 5.22804C1.53815 6.23779 1.42754 7.30732 1.54618 8.3637V16.6938C1.42754 17.7502 1.53815 18.8197 1.87045 19.8294C2.15612 20.3889 2.6111 20.8438 3.17054 21.1295C4.18028 21.4618 5.24982 21.5725 6.3062 21.4538H14.6363C15.6927 21.5725 16.7622 21.4618 17.7719 21.1295C18.3314 20.8438 18.7864 20.3889 19.072 19.8294C19.4043 18.8197 19.5149 17.7502 19.3963 16.6938V12.5287M7.49622 15.5038H9.15726C9.47663 15.5215 9.79699 15.5033 10.1123 15.4492C10.315 15.4008 10.5088 15.3204 10.6864 15.2112C10.9477 15.0266 11.1872 14.813 11.4005 14.5746L20.8838 5.09119C21.2783 4.69667 21.5 4.1616 21.5 3.60368C21.5 3.04575 21.2783 2.51068 20.8838 2.11616C20.4893 1.72165 19.9542 1.5 19.3963 1.5C18.8384 1.5 18.3033 1.72165 17.9088 2.11616L8.42543 11.5995C8.18692 11.8127 7.97335 12.0523 7.78878 12.3136C7.67955 12.4912 7.5992 12.6849 7.55076 12.8877C7.49673 13.203 7.47844 13.5234 7.49622 13.8427V15.5038Z" stroke="#01497C" stroke-width="2" stroke-linecap="round" stroke-linejoin="round"/>
</svg>
