<svg width="24" height="21" viewBox="0 0 24 21" fill="none" xmlns="http://www.w3.org/2000/svg">
<path id="Caminho 1195" d="M2.00003 3.2267C1.96013 2.87161 1.99732 2.51214 2.10904 2.17274C2.20491 1.98459 2.35787 1.8316 2.54602 1.73573C2.88543 1.62404 3.24495 1.58685 3.60004 1.62672H20.4C20.7551 1.58685 21.1146 1.62404 21.454 1.73573C21.6422 1.8316 21.7951 1.98459 21.891 2.17274C22.0027 2.51214 22.0399 2.87161 22 3.2267V3.8957C22.0108 4.07272 21.9998 4.25039 21.967 4.42469C21.9377 4.53519 21.89 4.63997 21.826 4.73469C21.7154 4.87278 21.5884 4.99707 21.448 5.10475L15.048 10.6487C14.9076 10.7564 14.7807 10.8807 14.67 11.0187C14.606 11.1135 14.5584 11.2183 14.529 11.3287C14.4963 11.503 14.4852 11.6807 14.496 11.8577V17.0847C14.507 17.2116 14.4962 17.3395 14.464 17.4627C14.4371 17.5392 14.3918 17.6079 14.332 17.6627C14.2293 17.7377 14.1147 17.7948 13.993 17.8317L10.593 19.1917C10.226 19.3387 10.042 19.4127 9.89303 19.3817C9.76408 19.355 9.65088 19.2784 9.57803 19.1687C9.4902 18.9395 9.46165 18.6919 9.49502 18.4487V11.8617C9.50584 11.6847 9.49477 11.507 9.46203 11.3327C9.4327 11.2222 9.38505 11.1174 9.32104 11.0227C9.21038 10.8846 9.08344 10.7604 8.94302 10.6527L2.54303 5.10871C2.40261 5.00103 2.2757 4.87681 2.16504 4.73872C2.10103 4.644 2.05335 4.53921 2.02402 4.42872C1.99128 4.25442 1.98021 4.07675 1.99103 3.89973L2.00003 3.2267Z" stroke="#01497C" stroke-width="2" stroke-linecap="round" stroke-linejoin="round"/>
</svg>
