<svg width="22" height="22" viewBox="0 0 22 22" fill="none" xmlns="http://www.w3.org/2000/svg">
<path d="M16.5595 7.66079C16.5551 7.07329 16.3198 6.51105 15.9044 6.09561C15.4889 5.68017 14.9267 5.4449 14.3392 5.44054M14.3392 14.3216C15.6566 14.3216 16.9445 13.9309 18.0398 13.199C19.1352 12.4671 19.9887 11.4269 20.4929 10.2098C20.997 8.99271 21.1291 7.65328 20.872 6.36122C20.615 5.06916 19.9806 3.88241 19.0491 2.95088C18.1176 2.01936 16.9308 1.38496 15.6388 1.12795C14.3467 0.870947 13.0073 1.00298 11.7902 1.50712C10.5731 2.01126 9.53293 2.86483 8.80103 3.96019C8.06914 5.05555 7.67844 6.34342 7.67844 7.66079C7.68032 7.96132 7.69891 8.26158 7.734 8.56006C7.79212 8.84864 7.81826 9.1428 7.81178 9.43711C7.8011 9.5724 7.75504 9.70235 7.67844 9.81438C7.54891 10.0131 7.39202 10.1925 7.21227 10.3472L1.5394 16.0201C1.40605 16.1392 1.28678 16.2732 1.18408 16.4196C1.11932 16.5173 1.07422 16.6267 1.05101 16.7416C1.01852 16.9172 1.0073 17.0961 1.01767 17.2744V19.206C0.972462 19.5988 1.01427 19.9968 1.13991 20.3717C1.2424 20.5854 1.41464 20.7576 1.6283 20.8601C2.0032 20.9857 2.40119 21.0275 2.79399 20.9823H5.45818V18.7621H7.67844V16.5418H9.89869L11.6528 14.7877C11.8075 14.608 11.9869 14.4511 12.1856 14.3216C12.2976 14.245 12.4276 14.1989 12.5629 14.1882C12.8572 14.1817 13.1514 14.2079 13.4399 14.266C13.7384 14.3011 14.0387 14.3197 14.3392 14.3216Z" stroke="white" stroke-width="2" stroke-linecap="round" stroke-linejoin="round"/>
</svg>
