<svg width="23" height="22" viewBox="0 0 23 22" fill="none" xmlns="http://www.w3.org/2000/svg">
<path id="Vector" d="M22.8828 10.9883C22.8828 10.2383 22.8125 9.50391 22.6719 8.78516C22.5156 8.06641 22.3008 7.37891 22.0273 6.72266C21.7539 6.06641 21.4141 5.44141 21.0078 4.84766C20.6172 4.25391 20.1719 3.70703 19.6719 3.20703C19.1719 2.72266 18.625 2.27734 18.0312 1.87109C17.4531 1.48047 16.8359 1.14453 16.1797 0.863281C15.5234 0.582031 14.8359 0.371094 14.1172 0.230469C13.3984 0.0742188 12.6562 -0.00390625 11.8906 -0.00390625C11.125 -0.00390625 10.3828 0.0742188 9.66406 0.230469C8.94531 0.371094 8.25781 0.582031 7.60156 0.863281C6.94531 1.14453 6.32812 1.48047 5.75 1.87109C5.15625 2.27734 4.60938 2.72266 4.10938 3.20703C3.60938 3.70703 3.16406 4.25391 2.77344 4.84766C2.36719 5.44141 2.02734 6.06641 1.75391 6.72266C1.48047 7.37891 1.26562 8.06641 1.10938 8.78516C0.96875 9.50391 0.898438 10.2383 0.898438 10.9883C0.898438 11.7539 0.96875 12.4961 1.10938 13.2148C1.26562 13.9336 1.48047 14.6211 1.75391 15.2773C2.02734 15.9336 2.36719 16.5586 2.77344 17.1523C3.16406 17.7305 3.60938 18.2695 4.10938 18.7695C4.60938 19.2695 5.15625 19.7148 5.75 20.1055C6.32812 20.5117 6.94531 20.8555 7.60156 21.1367C8.25781 21.418 8.94531 21.6289 9.66406 21.7695C10.3828 21.9258 11.125 22.0039 11.8906 22.0039C12.6562 22.0039 13.3984 21.9258 14.1172 21.7695C14.8359 21.6289 15.5234 21.418 16.1797 21.1367C16.8359 20.8555 17.4531 20.5117 18.0312 20.1055C18.625 19.7148 19.1719 19.2695 19.6719 18.7695C20.1719 18.2695 20.6172 17.7305 21.0078 17.1523C21.4141 16.5586 21.7539 15.9336 22.0273 15.2773C22.3008 14.6211 22.5156 13.9336 22.6719 13.2148C22.8125 12.4961 22.8828 11.7539 22.8828 10.9883ZM20.8906 10.9883C20.8906 12.2383 20.6562 13.4102 20.1875 14.5039C19.7188 15.5977 19.0781 16.5508 18.2656 17.3633C17.4375 18.1758 16.4805 18.8164 15.3945 19.2852C14.3086 19.7539 13.1406 19.9883 11.8906 19.9883C10.6406 19.9883 9.47266 19.7539 8.38672 19.2852C7.30078 18.8164 6.34375 18.1758 5.51562 17.3633C4.70312 16.5508 4.0625 15.5977 3.59375 14.5039C3.125 13.4102 2.89062 12.2383 2.89062 10.9883C2.89062 9.75391 3.125 8.58984 3.59375 7.49609C4.0625 6.40234 4.70312 5.44922 5.51562 4.63672C6.34375 3.82422 7.30078 3.17969 8.38672 2.70312C9.47266 2.22656 10.6406 1.98828 11.8906 1.98828C13.1406 1.98828 14.3086 2.22656 15.3945 2.70312C16.4805 3.17969 17.4375 3.82422 18.2656 4.63672C19.0781 5.44922 19.7188 6.40234 20.1875 7.49609C20.6562 8.58984 20.8906 9.75391 20.8906 10.9883ZM7.88281 11.9961H15.8984C16.1641 11.9961 16.3945 11.8984 16.5898 11.7031C16.7852 11.5078 16.8828 11.2695 16.8828 10.9883C16.8828 10.7227 16.7852 10.4922 16.5898 10.2969C16.3945 10.1016 16.1641 10.0039 15.8984 10.0039H7.88281C7.61719 10.0039 7.38672 10.1016 7.19141 10.2969C6.99609 10.4922 6.89844 10.7227 6.89844 10.9883C6.89844 11.2695 6.99609 11.5078 7.19141 11.7031C7.38672 11.8984 7.61719 11.9961 7.88281 11.9961Z" fill="#979797"/>
</svg>
