<svg width="22" height="16" viewBox="0 0 22 16" fill="none" xmlns="http://www.w3.org/2000/svg">
<path d="M19.8649 11.0158C17.7027 13.4467 14.5351 15 11 15C7.46487 15 4.3081 13.4568 2.13513 11.0158C0.621622 9.31124 0.621622 6.68876 2.13513 4.98415C4.29729 2.55331 7.46487 1 11 1C14.5351 1 17.6919 2.54322 19.8649 4.98415C21.3784 6.68876 21.3784 9.31124 19.8649 11.0158Z" stroke="#01497C" stroke-width="1.5" stroke-linecap="round" stroke-linejoin="round"/>
<path d="M11 11.1066C9.16106 11.1066 7.67031 9.71574 7.67031 8C7.67031 6.28425 9.16106 4.89337 11 4.89337C12.839 4.89337 14.3297 6.28425 14.3297 8C14.3297 9.71574 12.839 11.1066 11 11.1066Z" stroke="#01497C" stroke-width="1.5" stroke-linecap="round" stroke-linejoin="round"/>
</svg>
