<svg width="22" height="22" viewBox="0 0 22 22" fill="none" xmlns="http://www.w3.org/2000/svg">
<path d="M13.7243 18.1676C12.8486 18.3946 11.9405 18.5027 11 18.5027C7.46487 18.5027 4.2973 16.8486 2.13514 14.2324C0.621622 12.4054 0.621622 9.58378 2.13514 7.76756C2.30811 7.55135 2.5027 7.34594 2.6973 7.14053M5.15131 5.15135L16.8378 16.8487C17.9729 16.1568 19 15.2703 19.8648 14.2324C21.3783 12.4162 21.3783 9.58379 19.8648 7.76757C17.7027 5.15135 14.5351 3.49729 11 3.49729C8.85942 3.49729 6.87023 4.09189 5.15131 5.15135ZM5.15131 5.15135L1 1M5.15131 5.15135L8.64332 8.64323M13.3568 13.3567L8.64332 8.64323M13.3568 13.3567C13.9514 12.7513 14.3298 11.9189 14.3298 11C14.3298 9.15134 12.8487 7.67025 11.0001 7.67025C10.0812 7.67025 9.23791 8.03782 8.64332 8.64323M13.3568 13.3567L21 21" stroke="#747373" stroke-width="1.5" stroke-linecap="round" stroke-linejoin="round"/>
</svg>
