<svg width="22" height="22" viewBox="0 0 22 22" fill="none" xmlns="http://www.w3.org/2000/svg">
<path id="Vector" d="M22 10.9883C22 10.2383 21.9297 9.50391 21.7891 8.78516C21.6328 8.06641 21.418 7.37891 21.1445 6.72266C20.8711 6.06641 20.5312 5.44141 20.125 4.84766C19.7344 4.25391 19.2891 3.70703 18.7891 3.20703C18.2891 2.72266 17.7422 2.27734 17.1484 1.87109C16.5703 1.48047 15.9531 1.14453 15.2969 0.863281C14.6406 0.582031 13.9531 0.371094 13.2344 0.230469C12.5156 0.0742188 11.7734 -0.00390625 11.0078 -0.00390625C10.2422 -0.00390625 9.5 0.0742188 8.78125 0.230469C8.0625 0.371094 7.375 0.582031 6.71875 0.863281C6.0625 1.14453 5.44531 1.48047 4.86719 1.87109C4.27344 2.27734 3.72656 2.72266 3.22656 3.20703C2.72656 3.70703 2.28125 4.25391 1.89062 4.84766C1.48438 5.44141 1.14453 6.06641 0.871094 6.72266C0.597656 7.37891 0.382812 8.06641 0.226562 8.78516C0.0859375 9.50391 0.015625 10.2383 0.015625 10.9883C0.015625 11.7539 0.0859375 12.4961 0.226562 13.2148C0.382812 13.9336 0.597656 14.6211 0.871094 15.2773C1.14453 15.9336 1.48438 16.5586 1.89062 17.1523C2.28125 17.7305 2.72656 18.2695 3.22656 18.7695C3.72656 19.2695 4.27344 19.7148 4.86719 20.1055C5.44531 20.5117 6.0625 20.8555 6.71875 21.1367C7.375 21.418 8.0625 21.6289 8.78125 21.7695C9.5 21.9258 10.2422 22.0039 11.0078 22.0039C11.7734 22.0039 12.5156 21.9258 13.2344 21.7695C13.9531 21.6289 14.6406 21.418 15.2969 21.1367C15.9531 20.8555 16.5703 20.5117 17.1484 20.1055C17.7422 19.7148 18.2891 19.2695 18.7891 18.7695C19.2891 18.2695 19.7344 17.7305 20.125 17.1523C20.5312 16.5586 20.8711 15.9336 21.1445 15.2773C21.418 14.6211 21.6328 13.9336 21.7891 13.2148C21.9297 12.4961 22 11.7539 22 10.9883ZM20.0078 10.9883C20.0078 12.2383 19.7734 13.4102 19.3047 14.5039C18.8359 15.5977 18.1953 16.5508 17.3828 17.3633C16.5547 18.1758 15.5977 18.8164 14.5117 19.2852C13.4258 19.7539 12.2578 19.9883 11.0078 19.9883C9.75781 19.9883 8.58984 19.7539 7.50391 19.2852C6.41797 18.8164 5.46094 18.1758 4.63281 17.3633C3.82031 16.5508 3.17969 15.5977 2.71094 14.5039C2.24219 13.4102 2.00781 12.2383 2.00781 10.9883C2.00781 9.75391 2.24219 8.58984 2.71094 7.49609C3.17969 6.40234 3.82031 5.44922 4.63281 4.63672C5.46094 3.82422 6.41797 3.17969 7.50391 2.70312C8.58984 2.22656 9.75781 1.98828 11.0078 1.98828C12.2578 1.98828 13.4258 2.22656 14.5117 2.70312C15.5977 3.17969 16.5547 3.82422 17.3828 4.63672C18.1953 5.44922 18.8359 6.40234 19.3047 7.49609C19.7734 8.58984 20.0078 9.75391 20.0078 10.9883ZM7 11.9961H10V14.9961C10 15.2773 10.0977 15.5156 10.293 15.7109C10.4883 15.9062 10.7266 16.0039 11.0078 16.0039C11.2891 16.0039 11.5273 15.9062 11.7227 15.7109C11.918 15.5156 12.0156 15.2773 12.0156 14.9961V11.9961H15.0156C15.2812 11.9961 15.5117 11.8984 15.707 11.7031C15.9023 11.5078 16 11.2695 16 10.9883C16 10.7227 15.9023 10.4922 15.707 10.2969C15.5117 10.1016 15.2812 10.0039 15.0156 10.0039H12.0156V7.00391C12.0156 6.72266 11.918 6.48438 11.7227 6.28906C11.5273 6.09375 11.2891 5.99609 11.0078 5.99609C10.7266 5.99609 10.4883 6.09375 10.293 6.28906C10.0977 6.48438 10 6.72266 10 7.00391V10.0039H7C6.73438 10.0039 6.50391 10.1016 6.30859 10.2969C6.11328 10.4922 6.01562 10.7227 6.01562 10.9883C6.01562 11.2695 6.11328 11.5078 6.30859 11.7031C6.50391 11.8984 6.73438 11.9961 7 11.9961Z" fill="#01497C"/>
</svg>
