<svg width="26" height="30" viewBox="0 0 26 30" fill="none" xmlns="http://www.w3.org/2000/svg">
<path id="Caminho 1392" d="M24.9648 29C25.0558 27.6151 24.9702 26.2237 24.7105 24.8622C24.4237 23.8822 23.9095 22.9908 23.213 22.2664C22.5166 21.5421 21.6595 21.0072 20.7173 20.709C19.4082 20.4388 18.0705 20.3498 16.739 20.4444H9.26101C7.9295 20.3498 6.59175 20.4388 5.28266 20.709C4.34045 21.0072 3.48338 21.5421 2.78696 22.2664C2.09054 22.9908 1.5763 23.8822 1.28954 24.8622C1.02977 26.2237 0.944217 27.6151 1.03522 29M19.7302 8C19.7302 9.38447 19.3354 10.7379 18.5959 11.8891C17.8564 13.0402 16.8053 13.9374 15.5755 14.4672C14.3457 14.997 12.9925 15.1357 11.687 14.8656C10.3814 14.5955 9.18223 13.9288 8.241 12.9498C7.29976 11.9708 6.65875 10.7235 6.39907 9.36567C6.13938 8.00781 6.2727 6.60035 6.7821 5.32127C7.29149 4.04218 8.15405 2.94894 9.26082 2.17977C10.3676 1.41061 11.6689 1.00001 13 1.00001C13.8842 0.998778 14.7599 1.17901 15.5769 1.53036C16.394 1.88171 17.1364 2.3973 17.7616 3.04756C18.3867 3.69781 18.8825 4.46991 19.2203 5.31975C19.5581 6.16958 19.7314 7.08041 19.7302 8Z" stroke="#161616" stroke-width="2" stroke-linecap="round" stroke-linejoin="round"/>
</svg>
