<svg width="20" height="22" viewBox="0 0 20 22" fill="none" xmlns="http://www.w3.org/2000/svg">
<path id="Caminho 832" d="M14.0002 8V5C14.0002 3.93913 13.5788 2.92153 12.8286 2.17139C12.0785 1.42124 11.0611 1 10.0002 1C8.93932 1 7.92191 1.42124 7.17176 2.17139C6.42161 2.92153 6.00019 3.93913 6.00019 5V8M1.59217 9.3501L0.992195 15.75C0.822195 17.57 0.736215 18.4802 1.03822 19.1802C1.30245 19.7983 1.76748 20.3089 2.35816 20.6299C3.03016 20.9999 3.94419 21 5.77119 21H14.2292C16.0572 21 16.9712 20.9999 17.6422 20.6299C18.2331 20.3092 18.6983 19.7985 18.9622 19.1802C19.2622 18.4802 19.1792 17.57 19.0082 15.75L18.4082 9.3501C18.4194 8.3619 18.2284 7.38197 17.8472 6.47021C17.544 5.95673 17.094 5.54559 16.5552 5.29004C15.6099 4.99456 14.6141 4.89582 13.6292 5H6.37116C5.38659 4.89582 4.39112 4.99456 3.44617 5.29004C2.9072 5.54533 2.45716 5.95654 2.15418 6.47021C1.77199 7.38172 1.58071 8.36178 1.59217 9.3501Z" stroke="#454545" stroke-width="1.5" stroke-linecap="round" stroke-linejoin="round"/>
</svg>
