<svg width="22" height="22" viewBox="0 0 22 22" fill="none" xmlns="http://www.w3.org/2000/svg">
<path d="M9.89282 12.7947L20.3928 2.29469M10.0227 13.1246L12.6528 19.8847C12.8828 20.4747 12.9928 20.7746 13.1628 20.8646C13.2346 20.8992 13.3132 20.9172 13.3928 20.9172C13.4725 20.9172 13.5511 20.8992 13.6228 20.8646C13.7928 20.7746 13.9028 20.4747 14.1428 19.8847L20.7329 2.99464C20.9429 2.45464 21.0429 2.18466 20.9829 2.01466C20.9596 1.94208 20.9191 1.87618 20.8652 1.82227C20.8113 1.76837 20.7454 1.72806 20.6729 1.70472C20.5029 1.64472 20.2329 1.74472 19.6929 1.95472L2.80273 8.54469C2.21273 8.78469 1.91275 8.89471 1.82275 9.06471C1.78826 9.13647 1.77051 9.21506 1.77051 9.29469C1.77051 9.37431 1.78826 9.4529 1.82275 9.52467C1.91275 9.69467 2.21273 9.80468 2.80273 10.0347L9.56274 12.6647C9.64387 12.6912 9.72117 12.7282 9.79272 12.7747C9.84207 12.8041 9.88342 12.8453 9.91284 12.8947C9.95938 12.9662 9.99622 13.0435 10.0227 13.1246Z" stroke="#01497C" stroke-width="2" stroke-linecap="round" stroke-linejoin="round"/>
</svg>
