<svg width="23" height="21" viewBox="0 0 23 21" fill="none" xmlns="http://www.w3.org/2000/svg">
<path d="M1.5 12.4999C1.5 12.4999 1.61989 13.3489 5.13989 16.8639C6.27843 17.9991 7.70019 18.8088 9.25732 19.2091C10.8145 19.6095 12.4502 19.5858 13.9951 19.1405C15.54 18.6952 16.9376 17.8445 18.0427 16.6768C19.1479 15.5091 19.9204 14.0669 20.28 12.4999M1.5 12.4999V18.4999M1.5 12.4999H7.5M21.5 8.49985C21.5 8.49985 21.3801 7.65084 17.8601 4.13584C16.7216 3.00064 15.2998 2.19089 13.7427 1.79056C12.1855 1.39023 10.5498 1.41393 9.00488 1.85923C7.46001 2.30452 6.06243 3.15519 4.95728 4.32291C3.85213 5.49063 3.07961 6.93282 2.71997 8.49985M21.5 8.49985V2.49985M21.5 8.49985H15.5" stroke="#01497C" stroke-width="2" stroke-linecap="round" stroke-linejoin="round"/>
</svg>
